<svg xmlns="http://www.w3.org/2000/svg" width="53" height="47" fill="none">
  <path fill="#80BB3D" d="m52 18.6.2-.6v-.1a12.6 12.6 0 0 0-2.9-11.5 13.5 13.5 0 0 0-11-5.5h-.8a83 83 0 0 0-11 1.5l-7.7-1.2a17 17 0 0 0-11 1.7 15.3 15.3 0 0 0-4.7 4.5l-.1.1A15 15 0 0 0 2.9 24v.2a7 7 0 0 0-.7 2v1.5l.1.4.2.6.1.4.5.9a7 7 0 0 0 3.3 2.3A4.8 4.8 0 0 0 8.1 36a7 7 0 0 0 3.5 1.7 5.8 5.8 0 0 0 4.7 4c.3 1 .8 2 1.6 2.7a5 5 0 0 0 3.6 1.5c1 0 2-.3 2.9-.8 1.3.8 2.8 1 4.2.7a5.3 5.3 0 0 0 3.7-2.6l.1-.2c1.5.4 3 0 4.3-.7a5 5 0 0 0 2.4-2.9c1.6 0 3.1-.5 4.3-1.6a5.3 5.3 0 0 0 1.7-4.5v-.1a5.7 5.7 0 0 0 3.3-8c1.5-1.9 2.7-4 3.5-6.3v-.4Zm-3-3a7 7 0 0 1-.6 2.6v.2c-.6 1.5-1.4 3-2.5 4.2A329.3 329.3 0 0 1 32 10.3a4 4 0 0 0-2.8-1.1l-1 .1-6.1 2.1c-1 .4-2-.5-2.3-1.2a2 2 0 0 1 0-1.4c.2-.5.7-1 1.3-1 5.3-2 10.9-3 16.5-3.4h.8c1.3 0 2.6.2 3.8.7 1.8.8 3.3 2 4.5 3.6a8.7 8.7 0 0 1 2.4 5.7v1.2ZM5.7 27.3v-1l.2-.5.2-.3.4-.4 3.2-2.8a2 2 0 0 1 3 .4 1.4 1.4 0 0 1 .1 1.2l-5 5a2 2 0 0 1-2.1-1.6Zm4.3 4.2 5.7-5.5c.3-.2.6-.2 1-.2a2.7 2.7 0 0 1 1.7 1.7c0 .5 0 .9-.3 1.2v.2l-5.7 5.5a2.8 2.8 0 0 1-2.1-.9 2 2 0 0 1-.3-2Zm4.9 5.3 5.9-5.7c.3.1.7.3 1 .6.3.3.5.7.6 1.2v.6l-5 5a2 2 0 0 1-2-.7l-.5-1Zm5.4 5.3-.7-1 4.8-4.7 1 .5.4.8v.7a5 5 0 0 1-1 1.9l-1.3 1.5h-.1c-.5.5-1.2.8-1.8.8-.5 0-1-.2-1.3-.5Zm7.8.5h-.8l.2-.1c.5-.7 1-1.4 1.3-2.2l.8.8-.2.5a1.9 1.9 0 0 1-1.3 1ZM39.2 36l-3-3.4a1.7 1.7 0 1 0-2.7 2.3l2.5 2.8v.5a2 2 0 0 1-1 1.2c-.5.3-1.2.5-1.8.4L31 37.6a1.7 1.7 0 0 0-1.8-.5l-.1-.5c-.3-.9-.8-1.7-1.6-2.3a6 6 0 0 0-1.7-1.1v-1a5.7 5.7 0 0 0-1.7-3 5.5 5.5 0 0 0-2.3-1.5V27a5.2 5.2 0 0 0-1.6-3 5.8 5.8 0 0 0-3-1.7h-1a5.6 5.6 0 0 0-8.6-2.8h-.1l-2.2 1.8A11.4 11.4 0 0 1 6 9.5C7 8 8.2 6.7 9.6 5.8c2.7-1.3 5.7-1.8 8.7-1.3l.8.2a5.3 5.3 0 0 0-2.7 2.6 5.2 5.2 0 0 0 .1 4.1 5.5 5.5 0 0 0 6.7 3.2 144.7 144.7 0 0 1 6.1-2A2235 2235 0 0 0 45 26.3l.3.4a2.3 2.3 0 0 1-.3 2.8 2 2 0 0 1-.9.5l-3-3a1.7 1.7 0 0 0-2.5 2.4l2.9 2.9v.2l.3 1.1a1.8 1.8 0 0 1-.6 1.7c-.5.5-1.2.7-1.9.7Z"/>
</svg>
